<svg width="440" height="80" viewBox="0 0 440 80" fill="none" xmlns="http://www.w3.org/2000/svg">
<g clip-path="url(#clip0_1_2)">
<mask id="mask0_1_2" style="mask-type:luminance" maskUnits="userSpaceOnUse" x="-34" y="-24" width="366" height="156">
<path d="M331.271 -23.7059H-33.5294V131.871H331.271V-23.7059Z" fill="white"/>
<path d="M-33.5294 54.0824V-23.7059H148.871H331.271V54.0824V131.871H148.871H-33.5294V54.0824ZM53.6471 71.0971C53.6471 70.8658 48.2656 65.3385 41.6882 58.8142L29.7294 46.9517L26.4882 46.9406C24.4325 46.9335 23.2471 47.1083 23.2471 47.4186C23.2471 47.6877 28.5279 53.2226 34.9823 59.7184L46.7176 71.529L50.1824 71.5233C52.0879 71.5202 53.6471 71.3284 53.6471 71.0971ZM68.4437 70.7944C68.9727 70.157 67.3527 68.3953 54.807 55.9643L40.5699 41.8575L50.7967 31.9292C60.3896 22.6163 61.1099 22.0144 62.4175 22.2199C65.4766 22.7007 68.8418 19.7684 68.8454 16.619C68.8513 11.3561 62.7177 8.99449 58.7534 12.7333C57.4058 14.0043 57.2235 14.4439 57.2235 16.4238V18.6714L47.5618 27.9945C42.2478 33.1222 37.3693 37.6684 36.7206 38.0971C35.6874 38.7798 34.2964 38.8768 25.5012 38.8794L15.4612 38.8825L13.8074 37.2676C10.9325 34.4604 6.19992 34.8029 4.33918 37.9529C3.1629 39.9441 3.3399 43.0034 4.72675 44.6516C7.02402 47.3817 11.8614 47.3847 14.2545 44.6575L15.3991 43.3529H25.0402H34.6814L48.7011 57.4353L62.7208 71.5177H65.2821C67.0964 71.5177 68.0185 71.3067 68.4437 70.7944ZM253.809 67.5207C256.153 66.5407 259.364 63.1832 259.939 61.1114C262.151 53.1465 257.524 46.581 249.208 45.8838C240.279 45.1352 233.91 50.5322 234.611 58.2545C235.141 64.1 238.967 67.7987 245.222 68.5128C248.186 68.851 251.56 68.4612 253.809 67.5207ZM244.002 63.4209C239.744 61.5699 239.537 53.0779 243.704 51.1794C247.404 49.4937 252.029 50.5499 253.545 53.4269C254.627 55.4788 254.588 59.0237 253.462 60.9725C251.833 63.7922 247.46 64.9241 244.002 63.4209ZM276.491 68.5181C277.73 68.2524 278.863 67.8426 279.008 67.6076C279.153 67.3726 279.138 66.3879 278.974 65.4193L278.677 63.6582L276.144 63.9214C273.909 64.1536 273.505 64.0679 272.717 63.1936C271.941 62.3335 271.802 61.4412 271.666 56.4373L260.993 33.9647H264.614H268.235V31.7294V29.4941H264.92H261.606L261.29 26.1213L260.974 22.7484L258.234 22.8801L255.494 23.0118L255.363 26.2282L255.232 29.4446L253.352 29.5811L251.471 29.7177V31.7294V33.7412L253.371 33.8786L255.271 34.0161L255.29 39.9139C255.318 48.2369 256.213 50.3872 260.154 51.6015C262.713 52.3899 263.193 52.4072 265.974 51.8109L276.491 68.5181ZM182.531 67.8624C183.442 67.4818 184.642 66.7427 185.199 66.2198L175.694 48.5618V49.9809V51.4H178.411H181.128L180.982 43.0177C180.844 35.1299 180.773 34.5356 179.784 32.9449C178.03 30.1232 175.836 29.2706 170.329 29.2706C166.473 29.2706 165.136 29.4599 162.841 30.331C161.304 30.9142 160.047 31.5565 160.047 31.7584C160.047 32.0804 161.815 35.3062 161.991 35.3057C162.028 35.3055 163.138 34.8954 164.456 34.3942C167.764 33.1369 172.213 33.0816 173.822 34.2778C174.592 34.8498 175.074 35.6771 175.164 36.5795L175.304 37.9882H171.624C163.609 37.9882 159.714 39.5874 158.73 43.282C158.205 45.2505 158.735 47.962 159.895 49.2438C162.18 51.7688 168.253 52.7266 172.014 51.1551L182.531 67.8624ZM176.71 64.0109C175.467 63.5571 174.816 62.1917 175.112 60.6578C175.371 59.3143 177.672 58.5259 181.852 58.3488L175.247 41.4757V43.2392C175.247 45.2757 174.392 46.2557 171.812 47.1758C169.815 47.8882 167.912 47.9314 166.193 47.3036L176.71 64.0109ZM97.1119 44.6414L97.2353 37.8828L104.232 44.6414L111.228 51.4L115.185 51.3939L119.141 51.3878L115.109 47.4821C112.892 45.334 109.315 41.8848 107.161 39.8171C105.006 37.7495 103.3 35.9226 103.369 35.7573C103.438 35.5921 106.882 32.2558 111.022 28.3433C119.346 20.4775 119.261 20.6943 114.07 20.5975L111.68 20.5529L106.693 25.3934C103.95 28.0557 100.65 31.2015 99.3588 32.384L97.0118 34.5341V27.5435V20.5529H94.1059H91.2V35.9765V51.4H94.0942H96.9885L97.1119 44.6414ZM128.753 40.4471V29.4941H125.847H122.941V40.4471V51.4H125.847H128.753V40.4471ZM141.164 35.4177L141.047 19.4353H138.365H135.682L135.565 35.4177L135.448 51.4H138.365H141.282L141.164 35.4177ZM153.235 35.4177L153.118 19.4353H150.435H147.753L147.636 35.4177L147.518 51.4H150.435H153.352L153.235 35.4177ZM199.369 47.6C201.327 41.8359 203.149 37.0934 203.401 37.1039C203.53 37.1092 204.82 40.3281 206.267 44.2568L208.9 51.4L212.079 51.3955L215.259 51.3911L217.426 45.2484C218.619 41.8701 220.36 37.0941 221.297 34.6353C222.233 32.1765 222.846 30.0029 222.659 29.8052C222.472 29.6074 221.135 29.5068 219.688 29.5816L217.057 29.7177L214.593 37.2047C213.238 41.3226 212.023 44.6923 211.893 44.693C211.763 44.6934 210.427 41.3244 208.923 37.2059L206.19 29.7177L203.499 29.5856L200.809 29.4535L199.823 32.0444C199.281 33.4694 198.175 36.5819 197.366 38.9611C195.59 44.1772 195.079 45.2088 194.745 44.2471C194.617 43.8782 193.505 40.6019 192.273 36.9662C191.041 33.3306 189.913 30.162 189.766 29.925C189.493 29.4826 183.741 29.3015 183.741 29.7353C183.741 29.8679 185.587 34.8049 187.843 40.7062L191.945 51.436L195.049 51.3062L198.154 51.1765L199.369 47.6ZM36.4353 28.379C42.9058 22.1518 43.2081 21.9247 45.0477 21.9097C47.8161 21.8871 50.0683 19.7596 50.3953 16.8581C50.6714 14.4086 49.9239 12.9485 47.6992 11.5921C45.7825 10.4234 43.4035 10.4793 41.5373 11.7369C39.5501 13.0762 38.8379 14.5307 39 16.9188L39.1327 18.8729L31.1899 26.5144C26.8213 30.7173 23.2471 34.3141 23.2471 34.5074C23.2471 34.7007 24.7056 34.853 26.4882 34.8458L29.7294 34.8328L36.4353 28.379ZM128.55 25.2674C129.891 23.9263 129.95 22.3993 128.72 20.8368C127.791 19.6552 125.812 19.2714 124.079 19.9365C123.074 20.322 121.994 22.5632 122.34 23.5423C123.351 26.3981 126.535 27.2825 128.55 25.2674Z" fill="black"/>
</mask>
<g mask="url(#mask0_1_2)">
<path d="M331.271 -23.7059H-33.5294V131.871H331.271V-23.7059Z" fill="url(#paint0_radial_1_2)"/>
</g>
</g>
<path d="M110.036 59L96.374 43.314H91.452L107.046 25.42H112.198L98.03 41.612L97.616 38.438L115.648 59H110.036ZM88.876 59V25.42H93.384V59H88.876ZM122.444 59V34.436H126.86V59H122.444ZM118.672 37.932V34.436H126.86V37.932H118.672ZM123.686 30.48C122.704 30.48 121.968 30.2193 121.478 29.698C121.018 29.1767 120.788 28.5173 120.788 27.72C120.788 26.9227 121.018 26.2633 121.478 25.742C121.968 25.2207 122.704 24.96 123.686 24.96C124.667 24.96 125.388 25.2207 125.848 25.742C126.338 26.2633 126.584 26.9227 126.584 27.72C126.584 28.5173 126.338 29.1767 125.848 29.698C125.388 30.2193 124.667 30.48 123.686 30.48ZM137.514 59V25.42H141.93V59H137.514ZM134.11 28.916V25.42H141.93V28.916H134.11ZM152.516 59V25.42H156.932V59H152.516ZM149.112 28.916V25.42H156.932V28.916H149.112ZM182.1 59V51.64H181.364V43.13C181.364 41.4433 180.92 40.1707 180.03 39.312C179.172 38.4533 177.899 38.024 176.212 38.024C175.262 38.024 174.28 38.0393 173.268 38.07C172.256 38.1007 171.29 38.1313 170.37 38.162C169.45 38.1927 168.653 38.2387 167.978 38.3V34.436C168.653 34.3747 169.358 34.3287 170.094 34.298C170.861 34.2367 171.643 34.206 172.44 34.206C173.238 34.1753 174.004 34.16 174.74 34.16C177.255 34.16 179.31 34.4667 180.904 35.08C182.499 35.6627 183.68 36.6287 184.446 37.978C185.213 39.3273 185.596 41.152 185.596 43.452V59H182.1ZM174.05 59.644C172.21 59.644 170.616 59.3373 169.266 58.724C167.948 58.08 166.92 57.16 166.184 55.964C165.479 54.768 165.126 53.3267 165.126 51.64C165.126 49.892 165.51 48.4353 166.276 47.27C167.074 46.1047 168.224 45.2307 169.726 44.648C171.229 44.0347 173.038 43.728 175.154 43.728H181.824V47.04H174.97C173.192 47.04 171.827 47.4693 170.876 48.328C169.926 49.1867 169.45 50.2907 169.45 51.64C169.45 52.9893 169.926 54.078 170.876 54.906C171.827 55.734 173.192 56.148 174.97 56.148C176.013 56.148 177.01 55.964 177.96 55.596C178.911 55.1973 179.693 54.5533 180.306 53.664C180.95 52.744 181.303 51.4867 181.364 49.892L182.56 51.64C182.407 53.388 181.978 54.86 181.272 56.056C180.598 57.2213 179.647 58.1107 178.42 58.724C177.224 59.3373 175.768 59.644 174.05 59.644ZM202.628 59L207.596 35.264H213.576L219.372 59H215.6L209.804 35.356H211.276L206.262 59H202.628ZM200.374 59V55.504H205.48V59H200.374ZM199.362 59L192.416 34.436H196.648L203.41 59H199.362ZM216.52 59V55.504H221.626V59H216.52ZM218.59 59L224.478 34.436H228.48L222.454 59H218.59ZM247.15 59.828C245.004 59.828 243.118 59.46 241.492 58.724C239.867 57.988 238.487 57.022 237.352 55.826C236.248 54.5993 235.405 53.2347 234.822 51.732C234.27 50.2293 233.994 48.696 233.994 47.132V46.304C233.994 44.74 234.286 43.2067 234.868 41.704C235.451 40.1707 236.31 38.806 237.444 37.61C238.579 36.3833 239.959 35.4173 241.584 34.712C243.21 33.976 245.065 33.608 247.15 33.608C249.236 33.608 251.091 33.976 252.716 34.712C254.342 35.4173 255.722 36.3833 256.856 37.61C257.991 38.806 258.85 40.1707 259.432 41.704C260.015 43.2067 260.306 44.74 260.306 46.304V47.132C260.306 48.696 260.015 50.2293 259.432 51.732C258.88 53.2347 258.037 54.5993 256.902 55.826C255.798 57.022 254.434 57.988 252.808 58.724C251.183 59.46 249.297 59.828 247.15 59.828ZM247.15 55.872C248.99 55.872 250.554 55.4733 251.842 54.676C253.161 53.848 254.158 52.744 254.832 51.364C255.538 49.984 255.89 48.4353 255.89 46.718C255.89 44.97 255.538 43.406 254.832 42.026C254.127 40.646 253.115 39.5573 251.796 38.76C250.508 37.9627 248.96 37.564 247.15 37.564C245.372 37.564 243.823 37.9627 242.504 38.76C241.186 39.5573 240.174 40.646 239.468 42.026C238.763 43.406 238.41 44.97 238.41 46.718C238.41 48.4353 238.748 49.984 239.422 51.364C240.128 52.744 241.124 53.848 242.412 54.676C243.731 55.4733 245.31 55.872 247.15 55.872ZM278.328 59.276C276.488 59.276 274.894 59.0153 273.544 58.494C272.226 57.9727 271.198 57.0833 270.462 55.826C269.757 54.538 269.404 52.8053 269.404 50.628V26.984H273.636V51.18C273.636 52.4987 273.989 53.526 274.694 54.262C275.43 54.9673 276.458 55.32 277.776 55.32H282.1V59.276H278.328ZM265.172 37.748V34.436H282.1V37.748H265.172Z" fill="white"/>
<defs>
<radialGradient id="paint0_radial_1_2" cx="0" cy="0" r="1" gradientUnits="userSpaceOnUse" gradientTransform="translate(74.5 40.5) rotate(179.497) scale(57.0022 57.0022)">
<stop offset="0.100962" stop-color="#A5F3FC"/>
<stop offset="0.509615" stop-color="#22D3EE"/>
<stop offset="1" stop-color="#0A3FD4"/>
</radialGradient>
<clipPath id="clip0_1_2">
<rect width="76" height="76" fill="white" transform="translate(0 2)"/>
</clipPath>
</defs>
</svg>
