<svg xmlns="http://www.w3.org/2000/svg" viewBox="75 65 170 155" fill="none">
  <defs>
    <linearGradient id="g" x1="0" y1="0" x2="0" y2="1">
      <stop offset="0%" stop-color="#7ee8fa"/>
      <stop offset="40%" stop-color="#22d3ee"/>
      <stop offset="100%" stop-color="#0077b6"/>
    </linearGradient>
    <mask id="m">
      <rect width="816" height="348" fill="white"/>
      <path fill="black" d="M 0,174 V 0 H 408 816 V 174 348 H 408 0 Z m 195,38.05937 c 0,-0.51735 -12.0375,-12.88112 -26.75,-27.47504 l -26.75,-26.53441 -7.25,-0.025 c -4.59834,-0.0158 -7.25,0.37527 -7.25,1.06933 0,0.60186 11.8125,12.9826 26.25,27.51276 l 26.25,26.41846 7.75,-0.0128 c 4.2625,-0.007 7.75,-0.43604 7.75,-0.95339 z m 33.09781,-0.67722 c 1.18319,-1.42566 -2.44046,-5.3664 -30.50329,-33.17256 l -31.84599,-31.5547 22.87574,-22.20808 c 21.45766,-20.83139 23.06903,-22.17769 25.99394,-21.71799 6.84258,1.07545 14.37007,-5.483715 14.37805,-12.52848 C 229.0096,78.428175 215.2896,73.145572 206.42216,81.508646 203.40771,84.351634 203,85.335129 203,89.763711 v 5.027558 l -21.61181,20.854361 c -11.8865,11.46991 -22.799,21.6389 -24.25,22.59778 -2.31111,1.52726 -5.42251,1.74423 -25.09603,1.75 l -22.45783,0.007 -3.69942,-3.61238 c -6.430633,-6.27935 -17.016669,-5.51318 -21.178847,1.53283 -2.631144,4.45417 -2.235219,11.29723 0.866938,14.98394 5.138627,6.10691 15.959149,6.11368 21.312119,0.0133 L 109.44537,150 h 21.5657 21.56571 l 31.35987,31.5 31.35987,31.5 h 5.7293 c 4.05824,0 6.12091,-0.47188 7.07199,-1.61785 z m 414.63372,-7.32278 c 5.2421,-2.19203 12.42508,-9.70225 13.7119,-14.33658 4.94702,-17.81605 -5.40261,-32.50212 -24.00401,-34.0616 -19.9736,-1.67451 -34.21902,10.39758 -32.65271,27.67111 1.18565,13.07562 9.74434,21.34909 23.73727,22.94622 6.62933,0.75667 14.17628,-0.11527 19.20755,-2.21915 z m -21.93786,-9.17046 c -9.52425,-4.14046 -9.98689,-23.13582 -0.6669,-27.38229 8.27605,-3.77082 18.62257,-1.40807 22.01433,5.02724 2.41906,4.58977 2.33128,12.51917 -0.18685,16.87835 -3.64342,6.30718 -13.4261,8.83909 -21.16058,5.4767 z m 72.67209,11.40166 c 2.77213,-0.59452 5.30604,-1.51103 5.63092,-2.0367 0.32488,-0.52567 0.29121,-2.72841 -0.0748,-4.89497 l -0.66552,-3.93921 -5.66618,0.58868 c -4.99926,0.5194 -5.90157,0.32778 -7.66617,-1.62802 -1.73587,-1.92395 -2.04628,-3.91984 -2.35042,-15.11278 L 658.79915,129 H 666.89958 675 v -5 -5 h -7.41468 -7.41468 l -0.70698,-7.54456 -0.70699,-7.54456 -6.12833,0.29456 L 646.5,104.5 l -0.29269,7.19459 -0.29269,7.19459 -4.20731,0.30541 L 637.5,119.5 v 4.5 4.5 l 4.25,0.3075 4.25,0.3075 0.0439,13.1925 c 0.0619,18.61714 2.06355,23.42696 10.87946,26.14313 5.72443,1.7637 6.79861,1.80235 13.01843,0.46844 z m -210.17331,-1.4668 c 2.03733,-0.85125 4.72288,-2.50469 5.96788,-3.67431 L 468,161.65137 V 164.82569 168 h 6.07791 6.07792 l -0.32792,-18.75 C 479.51935,131.60629 479.3613,130.27691 477.14923,126.71891 473.22516,120.40726 468.31732,118.5 456,118.5 c -8.62548,0 -11.61578,0.42345 -16.75,2.37193 -3.4375,1.30455 -6.25,2.74133 -6.25,3.19284 0,0.72027 3.95474,7.93604 4.34878,7.93473 0.0832,-2.8e-4 2.56437,-0.91769 5.51377,-2.03869 7.39967,-2.81245 17.34995,-2.9362 20.94994,-0.26054 1.72161,1.27958 2.80013,3.13 3.00087,5.1486 L 467.12672,138 h -8.23145 c -17.92716,0 -26.64003,3.5771 -28.84237,11.84135 -1.17343,4.40327 0.0123,10.46827 2.60723,13.33559 5.11135,5.64798 18.69562,7.79039 27.10834,4.27533 z m -13.0205,-8.61523 c -2.77958,-1.01512 -4.23505,-4.0693 -3.5743,-7.50033 0.57875,-3.00518 5.72631,-4.76865 15.07633,-5.16489 L 467,145.801 v 3.94451 c 0,4.55533 -1.91289,6.74751 -7.6838,8.80568 -4.46778,1.59341 -8.72293,1.69019 -12.56823,0.28585 z M 292.22395,152.8821 292.5,137.76419 308.15023,152.8821 323.80046,168 l 8.84977,-0.0137 8.84977,-0.0137 -9.01827,-8.73631 c -4.96005,-4.80497 -12.96119,-12.52039 -17.78031,-17.14538 -4.81912,-4.62499 -8.6359,-8.71149 -8.48173,-9.08111 0.15417,-0.36962 7.85777,-7.83238 17.11911,-16.5839 18.61964,-17.594673 18.42881,-17.109656 6.81702,-17.32624 L 324.81164,99 313.65582,109.82742 c -6.1357,5.95508 -13.51832,12.99165 -16.40582,15.63684 L 292,130.27368 V 114.63684 99 h -6.5 -6.5 v 34.5 34.5 h 6.47395 6.47396 z M 363,143.5 V 119 h -6.5 -6.5 v 24.5 24.5 h 6.5 6.5 z M 390.76263,132.25 390.5,96.5 h -6 -6 l -0.26263,35.75 -0.26263,35.75 h 6.52526 6.52526 z m 27,0 L 417.5,96.5 h -6 -6 l -0.26263,35.75 -0.26263,35.75 h 6.52526 6.52526 z m 103.1943,27.25 c 4.37986,-12.89333 8.45512,-23.50168 9.01928,-23.47818 0.28809,0.012 3.17323,7.21201 6.41144,16 L 542.2753,168 l 7.11235,-0.01 7.11235,-0.01 4.84864,-13.74014 C 564.01539,146.68306 567.9111,136 570.00577,130.5 c 2.09468,-5.5 3.46588,-10.36191 3.04711,-10.80425 -0.41876,-0.44234 -3.40931,-0.66734 -6.64566,-0.5 l -5.88428,0.30425 -5.51147,16.74742 c -3.03131,9.21108 -5.74947,16.74858 -6.04036,16.75 -0.29089,0.001 -3.28016,-7.53492 -6.64282,-16.74742 l -6.11392,-16.75 -6.01835,-0.29541 -6.01834,-0.29541 -2.20419,5.79541 c -1.2123,3.18747 -3.6863,10.14964 -5.49777,15.47147 -3.97148,11.66763 -5.11539,13.97519 -5.86138,11.82394 -0.28608,-0.825 -2.77483,-8.15375 -5.53054,-16.28611 -2.75572,-8.13236 -5.27847,-15.21986 -5.60612,-15.75 C 498.86604,118.97424 486,118.56905 486,119.53944 c 0,0.29669 4.1287,11.33982 9.17489,24.54028 l 9.17489,24.00084 6.94478,-0.29028 6.94477,-0.29028 z M 156.5,116.50569 c 14.47348,-13.92934 15.1497,-14.43729 19.26469,-14.47088 6.19237,-0.0505 11.23016,-4.809474 11.96168,-11.299571 0.61758,-5.479116 -1.05451,-8.745066 -6.0307,-11.779242 -4.2874,-2.614191 -9.60884,-2.489093 -13.78322,0.324018 -4.44515,2.995591 -6.03827,6.249137 -5.67558,11.59095 l 0.29678,4.370966 -17.76682,17.092939 C 134.99507,121.73598 127,129.78155 127,130.2139 c 0,0.43236 3.2625,0.77299 7.25,0.75698 l 7.25,-0.0291 z m 206.04545,-6.96024 c 2.9997,-2.99969 3.13134,-6.41533 0.38197,-9.910591 -2.079,-2.64302 -6.5054,-3.501506 -10.38262,-2.013678 -2.24684,0.862195 -4.66397,5.875509 -3.88871,8.065469 2.26144,6.38814 9.38182,8.36635 13.88936,3.8588 z"/>
    </mask>
  </defs>
  <rect width="816" height="348" fill="url(#g)" mask="url(#m)"/>
</svg>
