<svg width="440" height="80" viewBox="0 0 440 80" fill="none" xmlns="http://www.w3.org/2000/svg">
<g clip-path="url(#clip0_0_1)">
<mask id="mask0_0_1" style="mask-type:luminance" maskUnits="userSpaceOnUse" x="-34" y="-24" width="366" height="156">
<path d="M331.271 -23.7059H-33.5294V131.871H331.271V-23.7059Z" fill="white"/>
<path d="M-33.5294 54.0824V-23.7059H148.871H331.271V54.0824V131.871H148.871H-33.5294V54.0824ZM53.6471 71.0971C53.6471 70.8659 48.2656 65.3385 41.6882 58.8142L29.7294 46.9517L26.4882 46.9406C24.4325 46.9335 23.2471 47.1083 23.2471 47.4186C23.2471 47.6877 28.5279 53.2226 34.9823 59.7184L46.7176 71.529L50.1823 71.5233C52.0879 71.5202 53.6471 71.3284 53.6471 71.0971ZM68.4437 70.7944C68.9727 70.157 67.3527 68.3953 54.807 55.9643L40.5699 41.8575L50.7967 31.9292C60.3896 22.6163 61.1099 22.0144 62.4175 22.2199C65.4766 22.7007 68.8418 19.7684 68.8454 16.619C68.8513 11.3561 62.7177 8.99449 58.7534 12.7333C57.4058 14.0043 57.2235 14.4439 57.2235 16.4238V18.6714L47.5618 27.9945C42.2478 33.1222 37.3693 37.6684 36.7206 38.0971C35.6874 38.7798 34.2964 38.8768 25.5012 38.8794L15.4612 38.8825L13.8074 37.2676C10.9325 34.4604 6.19992 34.8029 4.33918 37.9529C3.1629 39.9441 3.3399 43.0034 4.72675 44.6516C7.02402 47.3817 11.8614 47.3847 14.2545 44.6575L15.3991 43.3529H25.0402H34.6814L48.7011 57.4353L62.7208 71.5177H65.2821C67.0964 71.5177 68.0185 71.3067 68.4437 70.7944ZM253.809 67.5207C256.153 66.5407 259.364 63.1832 259.939 61.1114C262.151 53.1465 257.524 46.581 249.208 45.8838C240.279 45.1352 233.91 50.5322 234.611 58.2544C235.141 64.1 238.967 67.7987 245.222 68.5128C248.186 68.851 251.56 68.4612 253.809 67.5207ZM244.002 63.4209C239.744 61.5699 239.537 53.0779 243.704 51.1794C247.404 49.4937 252.029 50.5499 253.545 53.4269C254.627 55.4788 254.588 59.0237 253.462 60.9725C251.833 63.7922 247.46 64.9241 244.002 63.4209ZM276.491 68.5181C277.73 68.2524 278.863 67.8426 279.008 67.6076C279.153 67.3726 279.138 66.3879 278.974 65.4193L278.677 63.6582L276.144 63.9214C273.909 64.1536 273.505 64.0679 272.717 63.1936C271.941 62.3335 271.802 61.4412 271.666 56.4373L260.993 33.9647H264.614H268.235V31.7294V29.4941H264.92H261.606L261.29 26.1213L260.974 22.7484L258.234 22.8801L255.494 23.0118L255.363 26.2282L255.232 29.4446L253.351 29.5811L251.471 29.7177V31.7294V33.7412L253.371 33.8786L255.271 34.0161L255.29 39.9139C255.318 48.2369 256.213 50.3872 260.154 51.6015C262.713 52.3899 263.193 52.4072 265.974 51.8109L276.491 68.5181ZM182.531 67.8624C183.442 67.4818 184.642 66.7427 185.199 66.2198L175.694 48.5618V49.9809V51.4H178.411H181.128L180.982 43.0177C180.844 35.1299 180.773 34.5356 179.784 32.9449C178.03 30.1232 175.836 29.2706 170.329 29.2706C166.473 29.2706 165.136 29.4599 162.841 30.331C161.304 30.9142 160.047 31.5565 160.047 31.7584C160.047 32.0804 161.815 35.3062 161.991 35.3057C162.028 35.3055 163.138 34.8954 164.456 34.3943C167.764 33.1369 172.213 33.0816 173.822 34.2778C174.592 34.8498 175.074 35.6771 175.164 36.5795L175.304 37.9882H171.624C163.609 37.9882 159.714 39.5874 158.73 43.282C158.205 45.2505 158.735 47.962 159.895 49.2438C162.18 51.7688 168.253 52.7266 172.014 51.1551L182.531 67.8624ZM176.71 64.0109C175.467 63.5571 174.816 62.1917 175.112 60.6578C175.371 59.3143 177.672 58.5259 181.852 58.3488L175.247 41.4757V43.2392C175.247 45.2757 174.392 46.2557 171.812 47.1758C169.815 47.8882 167.912 47.9314 166.193 47.3036L176.71 64.0109ZM97.1119 44.6414L97.2353 37.8828L104.232 44.6414L111.228 51.4L115.185 51.3939L119.141 51.3878L115.109 47.4821C112.892 45.334 109.315 41.8848 107.161 39.8171C105.006 37.7495 103.3 35.9226 103.369 35.7573C103.438 35.5921 106.882 32.2558 111.022 28.3433C119.346 20.4775 119.261 20.6943 114.07 20.5975L111.68 20.5529L106.693 25.3934C103.95 28.0557 100.65 31.2015 99.3588 32.384L97.0118 34.5341V27.5435V20.5529H94.1059H91.2V35.9765V51.4H94.0942H96.9885L97.1119 44.6414ZM128.753 40.4471V29.4941H125.847H122.941V40.4471V51.4H125.847H128.753V40.4471ZM141.164 35.4177L141.047 19.4353H138.365H135.682L135.565 35.4177L135.448 51.4H138.365H141.282L141.164 35.4177ZM153.235 35.4177L153.118 19.4353H150.435H147.753L147.636 35.4177L147.518 51.4H150.435H153.352L153.235 35.4177ZM199.369 47.6C201.327 41.8359 203.149 37.0934 203.401 37.1039C203.53 37.1092 204.82 40.3281 206.267 44.2568L208.9 51.4L212.079 51.3955L215.259 51.3911L217.426 45.2484C218.619 41.8701 220.36 37.0941 221.297 34.6353C222.233 32.1765 222.846 30.0029 222.659 29.8052C222.472 29.6074 221.135 29.5068 219.688 29.5816L217.057 29.7177L214.593 37.2047C213.238 41.3226 212.023 44.6923 211.893 44.693C211.763 44.6934 210.427 41.3244 208.923 37.2059L206.19 29.7177L203.499 29.5856L200.809 29.4535L199.823 32.0444C199.281 33.4694 198.175 36.5819 197.366 38.9611C195.59 44.1772 195.079 45.2088 194.745 44.2471C194.617 43.8782 193.505 40.6019 192.273 36.9662C191.041 33.3306 189.913 30.162 189.766 29.925C189.493 29.4826 183.741 29.3015 183.741 29.7353C183.741 29.8679 185.587 34.8049 187.843 40.7062L191.945 51.436L195.049 51.3062L198.154 51.1765L199.369 47.6ZM36.4353 28.379C42.9058 22.1518 43.2081 21.9247 45.0477 21.9097C47.8161 21.8871 50.0683 19.7596 50.3953 16.8581C50.6714 14.4086 49.9239 12.9485 47.6992 11.5921C45.7825 10.4234 43.4035 10.4793 41.5373 11.7369C39.5501 13.0762 38.8379 14.5307 39 16.9188L39.1327 18.8729L31.1899 26.5144C26.8213 30.7173 23.2471 34.3141 23.2471 34.5074C23.2471 34.7007 24.7056 34.853 26.4882 34.8458L29.7294 34.8328L36.4353 28.379ZM128.55 25.2674C129.891 23.9263 129.95 22.3993 128.72 20.8368C127.791 19.6552 125.812 19.2714 124.079 19.9365C123.074 20.322 121.994 22.5632 122.34 23.5423C123.351 26.3981 126.535 27.2825 128.55 25.2674Z" fill="black"/>
</mask>
<g mask="url(#mask0_0_1)">
<path d="M331.271 -23.7059H-33.5294V131.871H331.271V-23.7059Z" fill="url(#paint0_radial_0_1)"/>
</g>
</g>
<path d="M110.036 51L96.374 35.314H91.452L107.046 17.42H112.198L98.03 33.612L97.616 30.438L115.648 51H110.036ZM88.876 51V17.42H93.384V51H88.876ZM122.444 51V26.436H126.86V51H122.444ZM118.672 29.932V26.436H126.86V29.932H118.672ZM123.686 22.48C122.704 22.48 121.968 22.2193 121.478 21.698C121.018 21.1767 120.788 20.5173 120.788 19.72C120.788 18.9227 121.018 18.2633 121.478 17.742C121.968 17.2207 122.704 16.96 123.686 16.96C124.667 16.96 125.388 17.2207 125.848 17.742C126.338 18.2633 126.584 18.9227 126.584 19.72C126.584 20.5173 126.338 21.1767 125.848 21.698C125.388 22.2193 124.667 22.48 123.686 22.48ZM137.514 51V17.42H141.93V51H137.514ZM134.11 20.916V17.42H141.93V20.916H134.11ZM152.516 51V17.42H156.932V51H152.516ZM149.112 20.916V17.42H156.932V20.916H149.112ZM182.1 51V43.64H181.364V35.13C181.364 33.4433 180.92 32.1707 180.03 31.312C179.172 30.4533 177.899 30.024 176.212 30.024C175.262 30.024 174.28 30.0393 173.268 30.07C172.256 30.1007 171.29 30.1313 170.37 30.162C169.45 30.1927 168.653 30.2387 167.978 30.3V26.436C168.653 26.3747 169.358 26.3287 170.094 26.298C170.861 26.2367 171.643 26.206 172.44 26.206C173.238 26.1753 174.004 26.16 174.74 26.16C177.255 26.16 179.31 26.4667 180.904 27.08C182.499 27.6627 183.68 28.6287 184.446 29.978C185.213 31.3273 185.596 33.152 185.596 35.452V51H182.1ZM174.05 51.644C172.21 51.644 170.616 51.3373 169.266 50.724C167.948 50.08 166.92 49.16 166.184 47.964C165.479 46.768 165.126 45.3267 165.126 43.64C165.126 41.892 165.51 40.4353 166.276 39.27C167.074 38.1047 168.224 37.2307 169.726 36.648C171.229 36.0347 173.038 35.728 175.154 35.728H181.824V39.04H174.97C173.192 39.04 171.827 39.4693 170.876 40.328C169.926 41.1867 169.45 42.2907 169.45 43.64C169.45 44.9893 169.926 46.078 170.876 46.906C171.827 47.734 173.192 48.148 174.97 48.148C176.013 48.148 177.01 47.964 177.96 47.596C178.911 47.1973 179.693 46.5533 180.306 45.664C180.95 44.744 181.303 43.4867 181.364 41.892L182.56 43.64C182.407 45.388 181.978 46.86 181.272 48.056C180.598 49.2213 179.647 50.1107 178.42 50.724C177.224 51.3373 175.768 51.644 174.05 51.644ZM202.628 51L207.596 27.264H213.576L219.372 51H215.6L209.804 27.356H211.276L206.262 51H202.628ZM200.374 51V47.504H205.48V51H200.374ZM199.362 51L192.416 26.436H196.648L203.41 51H199.362ZM216.52 51V47.504H221.626V51H216.52ZM218.59 51L224.478 26.436H228.48L222.454 51H218.59ZM247.15 51.828C245.004 51.828 243.118 51.46 241.492 50.724C239.867 49.988 238.487 49.022 237.352 47.826C236.248 46.5993 235.405 45.2347 234.822 43.732C234.27 42.2293 233.994 40.696 233.994 39.132V38.304C233.994 36.74 234.286 35.2067 234.868 33.704C235.451 32.1707 236.31 30.806 237.444 29.61C238.579 28.3833 239.959 27.4173 241.584 26.712C243.21 25.976 245.065 25.608 247.15 25.608C249.236 25.608 251.091 25.976 252.716 26.712C254.342 27.4173 255.722 28.3833 256.856 29.61C257.991 30.806 258.85 32.1707 259.432 33.704C260.015 35.2067 260.306 36.74 260.306 38.304V39.132C260.306 40.696 260.015 42.2293 259.432 43.732C258.88 45.2347 258.037 46.5993 256.902 47.826C255.798 49.022 254.434 49.988 252.808 50.724C251.183 51.46 249.297 51.828 247.15 51.828ZM247.15 47.872C248.99 47.872 250.554 47.4733 251.842 46.676C253.161 45.848 254.158 44.744 254.832 43.364C255.538 41.984 255.89 40.4353 255.89 38.718C255.89 36.97 255.538 35.406 254.832 34.026C254.127 32.646 253.115 31.5573 251.796 30.76C250.508 29.9627 248.96 29.564 247.15 29.564C245.372 29.564 243.823 29.9627 242.504 30.76C241.186 31.5573 240.174 32.646 239.468 34.026C238.763 35.406 238.41 36.97 238.41 38.718C238.41 40.4353 238.748 41.984 239.422 43.364C240.128 44.744 241.124 45.848 242.412 46.676C243.731 47.4733 245.31 47.872 247.15 47.872ZM278.328 51.276C276.488 51.276 274.894 51.0153 273.544 50.494C272.226 49.9727 271.198 49.0833 270.462 47.826C269.757 46.538 269.404 44.8053 269.404 42.628V18.984H273.636V43.18C273.636 44.4987 273.989 45.526 274.694 46.262C275.43 46.9673 276.458 47.32 277.776 47.32H282.1V51.276H278.328ZM265.172 29.748V26.436H282.1V29.748H265.172Z" fill="white"/>
<path d="M88.7926 68V61.4545H92.7429V62.1577H89.5852V64.3693H92.5384V65.0724H89.5852V67.2969H92.794V68H88.7926ZM100.352 61.4545V68H99.5848L96.0181 62.8608H95.9541V68H95.1615V61.4545H95.9286L99.5081 66.6065H99.572V61.4545H100.352ZM107.402 63.5C107.332 63.2848 107.239 63.092 107.124 62.9215C107.011 62.7489 106.876 62.6019 106.718 62.4805C106.563 62.359 106.386 62.2663 106.188 62.2024C105.99 62.1385 105.772 62.1065 105.536 62.1065C105.148 62.1065 104.795 62.2067 104.478 62.407C104.16 62.6072 103.908 62.9023 103.721 63.2923C103.533 63.6822 103.439 64.1605 103.439 64.7273C103.439 65.294 103.534 65.7724 103.724 66.1623C103.913 66.5522 104.17 66.8473 104.494 67.0476C104.818 67.2479 105.182 67.348 105.587 67.348C105.962 67.348 106.292 67.2681 106.578 67.1083C106.865 66.9464 107.089 66.7184 107.249 66.4244C107.411 66.1282 107.492 65.7798 107.492 65.3793L107.735 65.4304H105.766V64.7273H108.259V65.4304C108.259 65.9695 108.144 66.4382 107.914 66.8366C107.686 67.2351 107.37 67.544 106.968 67.7635C106.567 67.9808 106.107 68.0895 105.587 68.0895C105.007 68.0895 104.498 67.9531 104.059 67.6804C103.622 67.4077 103.282 67.0199 103.037 66.517C102.794 66.0142 102.672 65.4176 102.672 64.7273C102.672 64.2095 102.741 63.744 102.88 63.3306C103.021 62.9151 103.219 62.5614 103.474 62.2695C103.73 61.9776 104.033 61.7539 104.382 61.5984C104.732 61.4428 105.116 61.3651 105.536 61.3651C105.881 61.3651 106.203 61.4173 106.501 61.5217C106.801 61.6239 107.069 61.7699 107.303 61.9595C107.54 62.147 107.737 62.3718 107.895 62.6339C108.052 62.8938 108.161 63.1825 108.221 63.5H107.402ZM111.399 61.4545V68H110.606V61.4545H111.399ZM119.169 61.4545V68H118.401L114.835 62.8608H114.771V68H113.978V61.4545H114.745L118.325 66.6065H118.389V61.4545H119.169ZM121.745 68V61.4545H125.695V62.1577H122.537V64.3693H125.49V65.0724H122.537V67.2969H125.746V68H121.745ZM128.113 68V61.4545H132.064V62.1577H128.906V64.3693H131.859V65.0724H128.906V67.2969H132.115V68H128.113ZM134.482 68V61.4545H136.694C137.205 61.4545 137.625 61.5419 137.953 61.7166C138.281 61.8892 138.524 62.1268 138.682 62.4293C138.84 62.7319 138.918 63.076 138.918 63.4616C138.918 63.8473 138.84 64.1893 138.682 64.4876C138.524 64.7859 138.282 65.0202 137.956 65.1907C137.63 65.359 137.214 65.4432 136.707 65.4432H134.917V64.7273H136.681C137.031 64.7273 137.312 64.6761 137.525 64.5739C137.74 64.4716 137.896 64.3267 137.992 64.1392C138.09 63.9496 138.139 63.7237 138.139 63.4616C138.139 63.1996 138.09 62.9705 137.992 62.7745C137.894 62.5785 137.737 62.4272 137.522 62.3207C137.307 62.212 137.022 62.1577 136.668 62.1577H135.275V68H134.482ZM137.563 65.0597L139.174 68H138.254L136.668 65.0597H137.563ZM142.022 61.4545V68H141.229V61.4545H142.022ZM149.791 61.4545V68H149.024L145.458 62.8608H145.394V68H144.601V61.4545H145.368L148.948 66.6065H149.012V61.4545H149.791ZM156.842 63.5C156.772 63.2848 156.679 63.092 156.564 62.9215C156.451 62.7489 156.316 62.6019 156.158 62.4805C156.002 62.359 155.826 62.2663 155.627 62.2024C155.429 62.1385 155.212 62.1065 154.975 62.1065C154.588 62.1065 154.235 62.2067 153.917 62.407C153.6 62.6072 153.348 62.9023 153.16 63.2923C152.973 63.6822 152.879 64.1605 152.879 64.7273C152.879 65.294 152.974 65.7724 153.163 66.1623C153.353 66.5522 153.61 66.8473 153.933 67.0476C154.257 67.2479 154.622 67.348 155.027 67.348C155.402 67.348 155.732 67.2681 156.017 67.1083C156.305 66.9464 156.529 66.7184 156.688 66.4244C156.85 66.1282 156.931 65.7798 156.931 65.3793L157.174 65.4304H155.205V64.7273H157.698V65.4304C157.698 65.9695 157.583 66.4382 157.353 66.8366C157.125 67.2351 156.81 67.544 156.407 67.7635C156.007 67.9808 155.546 68.0895 155.027 68.0895C154.447 68.0895 153.938 67.9531 153.499 67.6804C153.062 67.4077 152.721 67.0199 152.476 66.517C152.233 66.0142 152.112 65.4176 152.112 64.7273C152.112 64.2095 152.181 63.744 152.319 63.3306C152.46 62.9151 152.658 62.5614 152.914 62.2695C153.17 61.9776 153.472 61.7539 153.822 61.5984C154.171 61.4428 154.556 61.3651 154.975 61.3651C155.321 61.3651 155.642 61.4173 155.941 61.5217C156.241 61.6239 156.508 61.7699 156.743 61.9595C156.979 62.147 157.176 62.3718 157.334 62.6339C157.492 62.8938 157.6 63.1825 157.66 63.5H156.842ZM164.36 61.4545V68H163.567V61.4545H164.36ZM172.129 61.4545V68H171.362L167.796 62.8608H167.732V68H166.939V61.4545H167.706L171.286 66.6065H171.349V61.4545H172.129ZM174.347 62.1577V61.4545H179.256V62.1577H177.198V68H176.406V62.1577H174.347ZM181.47 68V61.4545H185.42V62.1577H182.262V64.3693H185.215V65.0724H182.262V67.2969H185.471V68H181.47ZM187.839 68V61.4545H188.631V67.2969H191.674V68H187.839ZM193.891 68V61.4545H194.684V67.2969H197.726V68H193.891ZM200.736 61.4545V68H199.944V61.4545H200.736ZM207.79 63.5C207.72 63.2848 207.627 63.092 207.512 62.9215C207.399 62.7489 207.264 62.6019 207.106 62.4805C206.95 62.359 206.774 62.2663 206.575 62.2024C206.377 62.1385 206.16 62.1065 205.923 62.1065C205.536 62.1065 205.183 62.2067 204.866 62.407C204.548 62.6072 204.296 62.9023 204.108 63.2923C203.921 63.6822 203.827 64.1605 203.827 64.7273C203.827 65.294 203.922 65.7724 204.111 66.1623C204.301 66.5522 204.558 66.8473 204.882 67.0476C205.205 67.2479 205.57 67.348 205.975 67.348C206.35 67.348 206.68 67.2681 206.965 67.1083C207.253 66.9464 207.477 66.7184 207.637 66.4244C207.798 66.1282 207.879 65.7798 207.879 65.3793L208.122 65.4304H206.154V64.7273H208.646V65.4304C208.646 65.9695 208.531 66.4382 208.301 66.8366C208.073 67.2351 207.758 67.544 207.355 67.7635C206.955 67.9808 206.494 68.0895 205.975 68.0895C205.395 68.0895 204.886 67.9531 204.447 67.6804C204.01 67.4077 203.669 67.0199 203.424 66.517C203.181 66.0142 203.06 65.4176 203.06 64.7273C203.06 64.2095 203.129 63.744 203.268 63.3306C203.408 62.9151 203.606 62.5614 203.862 62.2695C204.118 61.9776 204.42 61.7539 204.77 61.5984C205.119 61.4428 205.504 61.3651 205.923 61.3651C206.269 61.3651 206.59 61.4173 206.889 61.5217C207.189 61.6239 207.456 61.7699 207.691 61.9595C207.927 62.147 208.124 62.3718 208.282 62.6339C208.44 62.8938 208.548 63.1825 208.608 63.5H207.79ZM210.994 68V61.4545H214.944V62.1577H211.787V64.3693H214.74V65.0724H211.787V67.2969H214.995V68H210.994ZM222.553 61.4545V68H221.786L218.219 62.8608H218.155V68H217.363V61.4545H218.13L221.709 66.6065H221.773V61.4545H222.553ZM224.771 62.1577V61.4545H229.68V62.1577H227.622V68H226.83V62.1577H224.771ZM238.994 63.0909C238.956 62.767 238.801 62.5156 238.528 62.3366C238.255 62.1577 237.921 62.0682 237.524 62.0682C237.235 62.0682 236.981 62.1151 236.764 62.2088C236.548 62.3026 236.38 62.4315 236.259 62.5955C236.139 62.7596 236.08 62.946 236.08 63.1548C236.08 63.3295 236.121 63.4798 236.204 63.6055C236.29 63.729 236.398 63.8324 236.53 63.9155C236.662 63.9964 236.801 64.0636 236.946 64.1168C237.091 64.168 237.224 64.2095 237.345 64.2415L238.01 64.4205C238.181 64.4652 238.37 64.527 238.579 64.6058C238.79 64.6847 238.991 64.7923 239.183 64.9286C239.377 65.0629 239.537 65.2354 239.662 65.4464C239.788 65.6573 239.851 65.9162 239.851 66.223C239.851 66.5767 239.758 66.8963 239.573 67.1818C239.39 67.4673 239.121 67.6942 238.768 67.8626C238.416 68.0309 237.989 68.1151 237.486 68.1151C237.017 68.1151 236.611 68.0394 236.268 67.8881C235.927 67.7369 235.659 67.5259 235.463 67.2553C235.269 66.9847 235.159 66.6705 235.134 66.3125H235.952C235.973 66.5597 236.056 66.7642 236.201 66.9261C236.348 67.0859 236.534 67.2053 236.757 67.2841C236.983 67.3608 237.226 67.3991 237.486 67.3991C237.788 67.3991 238.06 67.3501 238.301 67.2521C238.542 67.152 238.732 67.0135 238.873 66.8366C239.014 66.6577 239.084 66.4489 239.084 66.2102C239.084 65.9929 239.023 65.8161 238.902 65.6797C238.78 65.5433 238.621 65.4325 238.422 65.3473C238.224 65.2621 238.01 65.1875 237.78 65.1236L236.975 64.8935C236.463 64.7464 236.058 64.5366 235.76 64.2638C235.462 63.9911 235.313 63.6342 235.313 63.1932C235.313 62.8267 235.412 62.5071 235.61 62.2344C235.81 61.9595 236.079 61.7464 236.415 61.5952C236.754 61.4418 237.132 61.3651 237.55 61.3651C237.972 61.3651 238.347 61.4407 238.675 61.592C239.003 61.7411 239.263 61.9457 239.455 62.2056C239.649 62.4656 239.751 62.7607 239.762 63.0909H238.994ZM241.582 61.4545H242.489L244.305 64.5099H244.381L246.197 61.4545H247.104L244.739 65.3026V68H243.947V65.3026L241.582 61.4545ZM252.699 63.0909C252.661 62.767 252.505 62.5156 252.232 62.3366C251.96 62.1577 251.625 62.0682 251.229 62.0682C250.939 62.0682 250.686 62.1151 250.468 62.2088C250.253 62.3026 250.085 62.4315 249.963 62.5955C249.844 62.7596 249.784 62.946 249.784 63.1548C249.784 63.3295 249.826 63.4798 249.909 63.6055C249.994 63.729 250.103 63.8324 250.235 63.9155C250.367 63.9964 250.506 64.0636 250.65 64.1168C250.795 64.168 250.928 64.2095 251.05 64.2415L251.715 64.4205C251.885 64.4652 252.075 64.527 252.284 64.6058C252.495 64.6847 252.696 64.7923 252.888 64.9286C253.082 65.0629 253.241 65.2354 253.367 65.4464C253.493 65.6573 253.556 65.9162 253.556 66.223C253.556 66.5767 253.463 66.8963 253.278 67.1818C253.094 67.4673 252.826 67.6942 252.472 67.8626C252.121 68.0309 251.693 68.1151 251.191 68.1151C250.722 68.1151 250.316 68.0394 249.973 67.8881C249.632 67.7369 249.363 67.5259 249.167 67.2553C248.974 66.9847 248.864 66.6705 248.838 66.3125H249.656C249.678 66.5597 249.761 66.7642 249.906 66.9261C250.053 67.0859 250.238 67.2053 250.462 67.2841C250.688 67.3608 250.931 67.3991 251.191 67.3991C251.493 67.3991 251.765 67.3501 252.006 67.2521C252.246 67.152 252.437 67.0135 252.578 66.8366C252.718 66.6577 252.789 66.4489 252.789 66.2102C252.789 65.9929 252.728 65.8161 252.606 65.6797C252.485 65.5433 252.325 65.4325 252.127 65.3473C251.929 65.2621 251.715 65.1875 251.485 65.1236L250.679 64.8935C250.168 64.7464 249.763 64.5366 249.465 64.2638C249.166 63.9911 249.017 63.6342 249.017 63.1932C249.017 62.8267 249.116 62.5071 249.314 62.2344C249.515 61.9595 249.783 61.7464 250.12 61.5952C250.459 61.4418 250.837 61.3651 251.254 61.3651C251.676 61.3651 252.051 61.4407 252.379 61.592C252.708 61.7411 252.968 61.9457 253.159 62.2056C253.353 62.4656 253.455 62.7607 253.466 63.0909H252.699ZM255.491 62.1577V61.4545H260.4V62.1577H258.342V68H257.549V62.1577H255.491ZM262.613 68V61.4545H266.563V62.1577H263.406V64.3693H266.359V65.0724H263.406V67.2969H266.615V68H262.613ZM268.982 61.4545H269.928L272.153 66.8878H272.229L274.454 61.4545H275.4V68H274.658V63.027H274.594L272.549 68H271.833L269.788 63.027H269.724V68H268.982V61.4545ZM281.558 63.0909C281.52 62.767 281.365 62.5156 281.092 62.3366C280.819 62.1577 280.485 62.0682 280.088 62.0682C279.799 62.0682 279.545 62.1151 279.328 62.2088C279.112 62.3026 278.944 62.4315 278.823 62.5955C278.703 62.7596 278.644 62.946 278.644 63.1548C278.644 63.3295 278.685 63.4798 278.768 63.6055C278.854 63.729 278.962 63.8324 279.094 63.9155C279.226 63.9964 279.365 64.0636 279.51 64.1168C279.655 64.168 279.788 64.2095 279.909 64.2415L280.574 64.4205C280.745 64.4652 280.934 64.527 281.143 64.6058C281.354 64.6847 281.555 64.7923 281.747 64.9286C281.941 65.0629 282.101 65.2354 282.226 65.4464C282.352 65.6573 282.415 65.9162 282.415 66.223C282.415 66.5767 282.322 66.8963 282.137 67.1818C281.954 67.4673 281.685 67.6942 281.332 67.8626C280.98 68.0309 280.553 68.1151 280.05 68.1151C279.581 68.1151 279.175 68.0394 278.832 67.8881C278.491 67.7369 278.223 67.5259 278.027 67.2553C277.833 66.9847 277.723 66.6705 277.698 66.3125H278.516C278.537 66.5597 278.62 66.7642 278.765 66.9261C278.912 67.0859 279.098 67.2053 279.321 67.2841C279.547 67.3608 279.79 67.3991 280.05 67.3991C280.353 67.3991 280.624 67.3501 280.865 67.2521C281.106 67.152 281.296 67.0135 281.437 66.8366C281.578 66.6577 281.648 66.4489 281.648 66.2102C281.648 65.9929 281.587 65.8161 281.466 65.6797C281.344 65.5433 281.185 65.4325 280.986 65.3473C280.788 65.2621 280.574 65.1875 280.344 65.1236L279.539 64.8935C279.027 64.7464 278.622 64.5366 278.324 64.2638C278.026 63.9911 277.877 63.6342 277.877 63.1932C277.877 62.8267 277.976 62.5071 278.174 62.2344C278.374 61.9595 278.643 61.7464 278.979 61.5952C279.318 61.4418 279.696 61.3651 280.114 61.3651C280.536 61.3651 280.911 61.4407 281.239 61.592C281.567 61.7411 281.827 61.9457 282.019 62.2056C282.213 62.4656 282.315 62.7607 282.326 63.0909H281.558Z" fill="#B5C7E0"/>
<defs>
<radialGradient id="paint0_radial_0_1" cx="0" cy="0" r="1" gradientUnits="userSpaceOnUse" gradientTransform="translate(74.5 40.5) rotate(179.497) scale(57.0022 57.0022)">
<stop offset="0.100962" stop-color="#A5F3FC"/>
<stop offset="0.509615" stop-color="#22D3EE"/>
<stop offset="1" stop-color="#0A3FD4"/>
</radialGradient>
<clipPath id="clip0_0_1">
<rect width="76" height="76" fill="white" transform="translate(0 2)"/>
</clipPath>
</defs>
</svg>
